<svg xmlns:dc="http://purl.org/dc/elements/1.1/" xmlns:cc="http://creativecommons.org/ns#" xmlns:rdf="http://www.w3.org/1999/02/22-rdf-syntax-ns#" xmlns:svg="http://www.w3.org/2000/svg" xmlns="http://www.w3.org/2000/svg" version="1.1" id="svg2" viewBox="0 0 299.99999 299.99999" height="84.666664mm" width="84.666664mm">
  <defs id="defs4" fill="#ff7f5b"/>
  <metadata id="metadata7" fill="#ff7f5b">
    <rdf:RDF fill="#ff7f5b">
      <cc:Work rdf:about="" fill="#ff7f5b">
        <dc:format fill="#ff7f5b">image/svg+xml</dc:format>
        <dc:type rdf:resource="http://purl.org/dc/dcmitype/StillImage" fill="#ff7f5b"/>
        <dc:title fill="#ff7f5b"/>
      </cc:Work>
    </rdf:RDF>
  </metadata>
  <g transform="translate(-127.35561,-241.17533)" id="layer1">
    <path id="path4147" d="M 260.46358,540.33303 C 213.02612,534.81611 170.4325,506.60304 146.88119,465.09858 125.66467,427.70872 121.53126,383.23726 135.49766,342.6228 c 22.29037,-64.82066 84.88349,-106.14946 152.9942,-101.01853 70.07134,5.27861 126.8526,57.99067 137.19196,127.36018 10.31102,69.17942 -27.8411,135.38177 -93.25697,161.82143 -20.93481,8.4614 -49.13269,12.20232 -71.96327,9.54715 z m -37.19712,-154.43542 128.08759,0 36.25371,60.22892 c 2.51843,-4.49037 7.91816,-19.76247 9.84566,-27.84648 2.07974,-8.72254 2.2698,-10.98102 2.26192,-26.87916 -0.009,-18.32573 -1.00947,-25.49342 -5.4444,-39.00826 -2.94869,-8.98575 -12.38652,-26.97765 -18.19869,-34.69326 -10.77068,-14.29802 -28.35572,-29.0404 -44.04249,-36.92292 -8.38678,-4.21432 -24.18401,-9.29385 -34.09478,-10.96302 -11.13068,-1.87463 -30.53442,-1.91327 -40.72829,-0.0811 -22.44505,4.03408 -41.6405,12.91888 -58.92651,27.2747 -21.23486,17.63531 -35.70683,42.16914 -41.69697,70.68744 -2.69312,12.82163 -2.7262,33.08828 -0.0757,46.36542 4.49427,22.51293 15.1324,43.91638 29.552,59.45736 l 4.72223,5.08947 32.04594,0 z" style="fill:#ff7f5b;fill-opacity:1"/>
  </g>
</svg>